HIERARCHY
ROOT Hip
{
	OFFSET	0.00  0.00  0.00 
	CHANNELS 6 Xposition Yposition Zposition Xrotation Zrotation Yrotation
	JOINT Abdomen
	{
		OFFSET	0.039181 5.637571 0.560720
		CHANNELS 3 Xrotation Zrotation Yrotation
		JOINT Chest
		{
			OFFSET	-0.136063 7.190207 -0.124363
			CHANNELS 3 Xrotation Zrotation Yrotation
			JOINT Neck
			{
				OFFSET	0.193764 10.560151 -1.259468
				CHANNELS 3 Xrotation Zrotation Yrotation
				JOINT Head
				{
					OFFSET	-0.096882 0.362727 0.622109
					CHANNELS 3 Xrotation Zrotation Yrotation
					JOINT LeftEye
					{
						OFFSET	1.356350 5.062673 4.221998
						CHANNELS 3 Zrotation Yrotation Xrotation
						End Site
						{
							OFFSET 0.000000 0.000000 0.871939
						}
					}
					JOINT RightEye
					{
						OFFSET	-1.356350 5.062673 4.221998
						CHANNELS 3 Zrotation Yrotation Xrotation
						End Site
						{
							OFFSET 0.000000 0.000000 0.871939
						}
					}
				}
			}
			JOINT RightCollar
			{
				OFFSET	-3.778404 4.940989 0.193764
				CHANNELS 3 Yrotation Zrotation Xrotation
				JOINT RightShoulder
				{
					OFFSET	-2.615818 1.356350 -0.484411
					CHANNELS 3 Zrotation Yrotation Xrotation
					JOINT RightForearm
					{
						OFFSET	-11.432094 0.484410 -1.937643
						CHANNELS 3 Yrotation Zrotation Xrotation
						JOINT RightHand
						{
							OFFSET	-10.657035 -0.096881 0.581293
							CHANNELS 3 Zrotation Yrotation Xrotation
							JOINT RightThumb1
							{
								OFFSET	-0.678175 -0.581297 0.968821
								CHANNELS 3 Zrotation Yrotation Xrotation
								JOINT RightThumb2
								{
									OFFSET	-0.968823 -0.484410 0.484411
									CHANNELS 3 Zrotation Yrotation Xrotation
									JOINT RightThumb3
									{
										OFFSET	-0.929680 -0.497680 0.055639
										CHANNELS 3 Zrotation Yrotation Xrotation
										End Site
										{
											OFFSET -1.097190 -0.513867 -0.001182
										}
									}
								}
							}
							JOINT RightIndex1
							{
								OFFSET	-3.003348 0.581291 1.259468
								CHANNELS 3 Zrotation Yrotation Xrotation
								JOINT RightIndex2
								{
									OFFSET	-1.468153 -0.266718 0.069755
									CHANNELS 3 Zrotation Yrotation Xrotation
									JOINT RightIndex3
									{
										OFFSET	-0.944212 -0.382684 -0.083028
										CHANNELS 3 Zrotation Yrotation Xrotation
										End Site
										{
											OFFSET -0.675657 -0.558718 0.000000
										}
									}
								}
							}
							JOINT RightMid1
							{
								OFFSET	-3.197113 0.581291 0.290646
								CHANNELS 3 Zrotation Yrotation Xrotation
								JOINT RightMid2
								{
									OFFSET	-1.550115 -0.387529 0.000000
									CHANNELS 3 Zrotation Yrotation Xrotation
									JOINT RightMid3
									{
										OFFSET	-0.731071 -0.803926 0.018214
										CHANNELS 3 Zrotation Yrotation Xrotation
										End Site
										{
											OFFSET -0.366992 -0.937043 0.083406
										}
									}
								}
							}
							JOINT RightRing1
							{
								OFFSET	-3.197113 0.387529 -0.678175
								CHANNELS 3 Zrotation Yrotation Xrotation
								JOINT RightRing2
								{
									OFFSET	-1.259466 -0.484410 0.096882
									CHANNELS 3 Zrotation Yrotation Xrotation
									JOINT RightRing3
									{
										OFFSET	-0.551552 -0.801218 0.111221
										CHANNELS 3 Zrotation Yrotation Xrotation
										End Site
										{
											OFFSET -0.245208 -0.810324 0.000000
										}
									}
								}
							}
							JOINT RightPinky1
							{
								OFFSET	-2.809584 -0.096881 -1.453232
								CHANNELS 3 Zrotation Yrotation Xrotation
								JOINT RightPinky2
								{
									OFFSET	-0.984323 -0.316034 0.039140
									CHANNELS 3 Zrotation Yrotation Xrotation
									JOINT RightPinky3
									{
										OFFSET	-0.468908 -0.555906 0.057742
										CHANNELS 3 Zrotation Yrotation Xrotation
										End Site
										{
											OFFSET -0.479664 -0.640198 0.044081
										}
									}
								}
							}
						}
					}
				}
			}
			JOINT LeftCollar
			{
				OFFSET	3.972168 4.940989 0.193764
				CHANNELS 3 Yrotation Zrotation Xrotation
				JOINT LeftShoulder
				{
					OFFSET	2.615818 1.356350 -0.484411
					CHANNELS 3 Zrotation Yrotation Xrotation
					JOINT LeftForearm
					{
						OFFSET	11.432094 0.484410 -1.937643
						CHANNELS 3 Yrotation Zrotation Xrotation
						JOINT LeftHand
						{
							OFFSET	10.657035 -0.096881 0.581293
							CHANNELS 3 Zrotation Yrotation Xrotation
							JOINT LeftThumb1
							{
								OFFSET	0.678175 -0.581297 0.968821
								CHANNELS 3 Zrotation Yrotation Xrotation
								JOINT LeftThumb2
								{
									OFFSET	0.968823 -0.484410 0.484411
									CHANNELS 3 Zrotation Yrotation Xrotation
									JOINT LeftThumb3
									{
										OFFSET	0.929680 -0.497680 0.055639
										CHANNELS 3 Zrotation Yrotation Xrotation
										End Site
										{
											OFFSET 1.097190 -0.513867 -0.001182
										}
									}
								}
							}
							JOINT LeftIndex1
							{
								OFFSET	3.003348 0.581291 1.259468
								CHANNELS 3 Zrotation Yrotation Xrotation
								JOINT LeftIndex2
								{
									OFFSET	1.468153 -0.266718 0.069755
									CHANNELS 3 Zrotation Yrotation Xrotation
									JOINT LeftIndex3
									{
										OFFSET	0.944212 -0.382684 -0.083028
										CHANNELS 3 Zrotation Yrotation Xrotation
										End Site
										{
											OFFSET 0.675657 -0.558718 0.000000
										}
									}
								}
							}
							JOINT LeftMid1
							{
								OFFSET	3.197113 0.581291 0.290646
								CHANNELS 3 Zrotation Yrotation Xrotation
								JOINT LeftMid2
								{
									OFFSET	1.550115 -0.387529 0.000000
									CHANNELS 3 Zrotation Yrotation Xrotation
									JOINT LeftMid3
									{
										OFFSET	0.731071 -0.803926 0.018214
										CHANNELS 3 Zrotation Yrotation Xrotation
										End Site
										{
											OFFSET 0.366992 -0.937043 0.083406
										}
									}
								}
							}
							JOINT LeftRing1
							{
								OFFSET	3.197113 0.387529 -0.678175
								CHANNELS 3 Zrotation Yrotation Xrotation
								JOINT LeftRing2
								{
									OFFSET	1.259466 -0.484410 0.096882
									CHANNELS 3 Zrotation Yrotation Xrotation
									JOINT LeftRing3
									{
										OFFSET	0.551552 -0.801218 0.111221
										CHANNELS 3 Zrotation Yrotation Xrotation
										End Site
										{
											OFFSET 0.245208 -0.810324 0.000000
										}
									}
								}
							}
							JOINT LeftPinky1
							{
								OFFSET	2.809584 -0.096881 -1.453232
								CHANNELS 3 Zrotation Yrotation Xrotation
								JOINT LeftPinky2
								{
									OFFSET	0.984323 -0.316034 0.039140
									CHANNELS 3 Zrotation Yrotation Xrotation
									JOINT LeftPinky3
									{
										OFFSET	0.468908 -0.555906 0.057742
										CHANNELS 3 Zrotation Yrotation Xrotation
										End Site
										{
											OFFSET 0.479664 -0.640198 0.044081
										}
									}
								}
							}
						}
					}
				}
			}
		}
	}
	JOINT RightThigh
	{
		OFFSET	-3.875286 0.717509 0.339475
		CHANNELS 3 Xrotation Zrotation Yrotation
		JOINT RightShin
		{
			OFFSET	-0.434323 -20.673391 0.003424
			CHANNELS 3 Xrotation Zrotation Yrotation
			JOINT RightFoot
			{
				OFFSET	-0.063555 -15.653578 -0.075717
				CHANNELS 3 Xrotation Yrotation Zrotation
				JOINT RightToe
				{
					OFFSET	-0.513669 -2.790361 5.061637
					CHANNELS 3 Xrotation Yrotation Zrotation
					End Site
					{
						OFFSET 0.000000 -0.280183 2.993164
					}
				}
			}
		}
	}
	JOINT LeftThigh
	{
		OFFSET	3.875286 0.717509 0.339475
		CHANNELS 3 Xrotation Zrotation Yrotation
		JOINT LeftShin
		{
			OFFSET	0.434323 -20.673391 0.003424
			CHANNELS 3 Xrotation Zrotation Yrotation
			JOINT LeftFoot
			{
				OFFSET	0.063555 -15.653578 -0.075717
				CHANNELS 3 Xrotation Yrotation Zrotation
				JOINT LeftToe
				{
					OFFSET	0.513669 -2.874842 4.946725
					CHANNELS 3 Xrotation Yrotation Zrotation
					End Site
					{
						OFFSET 0.000000 -0.195702 3.108076
					}
				}
			}
		}
	}
}
MOTION
Frames:     6
Frame Time: 0.033333
0.000000 41.103455 0.000000 -1.234390 -4.569260 -31.015400 10.398700 4.149720 -5.029240 11.630000 10.679900 6.606150 0.000000 0.000000 0.000000 -30.758101 -14.301800 7.266110 0.000000 0.000000 0.000000 0.000000 0.000000 0.000000 -8.086020 -27.039700 -0.683371 89.135544 11.613690 4.812071 43.765930 -0.130725 -0.537287 -14.159040 -19.902899 2.639481 -2.196803 8.088476 9.363434 5.081116 8.200828 -17.027071 -12.745916 11.528087 -17.401958 43.289902 19.533600 6.276580 2.575046 -8.807467 1.011032 15.258279 3.416048 -6.315852 34.696049 23.527008 15.577812 8.244953 -1.502700 0.722675 -12.838020 -2.429856 5.230082 35.942455 25.760197 18.217253 -0.156757 -5.465929 4.370303 -17.719269 -3.972915 -0.926374 33.485588 25.796474 16.095177 7.752715 -4.393883 3.036627 4.441531 -3.901016 1.855662 3.933060 10.498900 -1.090150 -99.522232 -6.351888 3.759290 -41.306114 -0.304936 -0.480140 11.329096 26.107836 3.907672 1.301079 -8.886789 9.164861 0.032500 -8.414250 -17.094839 6.905641 -12.327354 -17.909184 -10.289900 -19.533600 6.217660 -26.058514 -10.005517 -5.939190 9.007195 -3.570157 -6.428788 1.471110 -27.195522 -0.506855 -0.351563 0.000000 0.000000 -21.667566 1.148763 4.187686 -36.830936 -25.705244 18.217213 -0.736324 5.381598 4.224761 16.871576 3.912536 -1.093365 -34.376259 -25.747744 16.095236 -8.641175 4.276957 2.914167 -5.330077 3.798435 1.717381 -15.970078 -0.163875 -24.266804 21.796694 0.000419 -0.089418 5.400837 -12.411800 4.215775 -0.000457 0.016384 -0.175016 -18.203838 12.927521 10.192716 63.629189 -0.607282 0.265000 49.602016 1.822181 21.276026 0.000000 0.000000 0.000000 
-1.507573 41.373619 1.885326 -0.880912 -3.866730 -33.690800 9.161130 3.818020 -3.417370 11.046000 9.319450 6.385580 0.000000 0.000000 0.000000 -27.264299 -12.710900 5.762180 0.000000 0.000000 0.000000 0.000000 0.000000 0.000000 -7.781510 -25.409901 -0.856030 87.880348 12.152690 7.682187 43.591911 0.089558 -0.437950 -13.467215 -21.003983 3.699505 -2.196803 8.088476 9.363434 5.081116 8.200828 -17.027071 -12.745916 11.528087 -17.401958 43.289902 19.533600 6.276580 2.575046 -8.807467 1.011032 15.258279 3.416048 -6.315852 34.696049 23.527008 15.577812 8.244953 -1.502700 0.722675 -12.838020 -2.429856 5.230082 35.942455 25.760197 18.217253 -0.156757 -5.465929 4.370303 -17.719269 -3.972915 -0.926374 33.485588 25.796474 16.095177 7.752715 -4.393883 3.036627 4.441531 -3.901016 1.855662 4.317340 12.257900 -1.110930 -100.109886 -0.197466 3.301058 -41.306122 -0.303799 -0.479784 10.265650 27.842043 7.520041 1.301079 -8.886789 9.164861 0.032500 -8.414250 -17.094839 6.905641 -12.327354 -17.909184 -10.289900 -19.533600 6.217660 -26.058514 -10.005517 -5.939190 9.007195 -3.570157 -6.428788 1.471110 -27.195522 -0.506855 -0.351563 0.000000 0.000000 -21.667566 1.148763 4.187686 -36.830936 -25.705244 18.217213 -0.736324 5.381598 4.224761 16.871576 3.912536 -1.093365 -34.376259 -25.747744 16.095236 -8.641175 4.276957 2.914167 -5.330077 3.798435 1.717381 -12.800568 0.189172 -24.200319 20.742016 0.000442 -0.084993 1.383489 -10.493788 2.500284 -0.000457 0.016384 -0.175016 -24.186987 14.696911 12.139968 66.090149 -0.632410 0.244514 44.034283 7.789405 8.730533 0.000000 0.000000 0.000000 
-2.986683 41.608402 3.737655 -0.528062 -2.988150 -36.535099 7.748780 3.483620 -1.801620 10.295500 7.957430 6.021310 0.000000 0.000000 0.000000 -23.661400 -10.973800 4.220280 0.000000 0.000000 0.000000 0.000000 0.000000 0.000000 -7.481100 -23.627899 -0.848815 87.250427 12.501369 11.115111 43.414368 -0.134727 -0.532849 -12.932878 -22.155085 4.788441 -2.196803 8.088476 9.363434 5.081116 8.200828 -17.027071 -12.745916 11.528087 -17.401958 43.289902 19.533600 6.276580 2.575046 -8.807467 1.011032 15.258279 3.416048 -6.315852 34.696049 23.527008 15.577812 8.244953 -1.502700 0.722675 -12.838020 -2.429856 5.230082 35.942455 25.760197 18.217253 -0.156757 -5.465929 4.370303 -17.719269 -3.972915 -0.926374 33.485588 25.796474 16.095177 7.752715 -4.393883 3.036627 4.441531 -3.901016 1.855662 4.892310 14.027800 -1.019360 -100.420471 5.929419 3.609349 -41.306660 -0.178791 -0.440683 9.574175 29.747065 11.377517 1.301079 -8.886789 9.164861 0.032500 -8.414250 -17.094839 6.905641 -12.327354 -17.909184 -10.289900 -19.533600 6.217660 -26.058514 -10.005517 -5.939190 9.007195 -3.570157 -6.428788 1.471110 -27.195522 -0.506855 -0.351563 0.000000 0.000000 -21.667566 1.148763 4.187686 -36.830936 -25.705244 18.217213 -0.736324 5.381598 4.224761 16.871576 3.912536 -1.093365 -34.376259 -25.747744 16.095236 -8.641175 4.276957 2.914167 -5.330077 3.798435 1.717381 -9.974690 0.369185 -23.917181 19.687338 0.000460 -0.080583 -1.389186 -8.289544 1.251361 -0.000457 0.016384 -0.175016 -29.934025 16.404902 13.728576 68.376801 -0.464382 0.177738 39.004749 15.898067 -2.824273 0.000000 0.000000 0.000000 
-4.431767 42.008293 5.562489 -0.175921 -2.285150 -39.368099 6.337710 3.144780 0.006656 9.732790 6.584410 5.885560 0.000000 0.000000 0.000000 -20.355400 -9.901740 2.747350 0.000000 0.000000 0.000000 0.000000 0.000000 0.000000 -7.195320 -21.825399 -1.033410 86.400612 12.674580 14.154324 43.062813 -0.136485 -0.529203 -12.307418 -23.302099 6.061605 -2.196803 8.088476 9.363434 5.081116 8.200828 -17.027071 -12.745916 11.528087 -17.401958 43.289902 19.533600 6.276580 2.575046 -8.807467 1.011032 15.258279 3.416048 -6.315852 34.696049 23.527008 15.577812 8.244953 -1.502700 0.722675 -12.838020 -2.429856 5.230082 35.942455 25.760197 18.217253 -0.156757 -5.465929 4.370303 -17.719269 -3.972915 -0.926374 33.485588 25.796474 16.095177 7.752715 -4.393883 3.036627 4.441531 -3.901016 1.855662 5.293390 15.612400 -1.117340 -100.236374 12.062345 3.613437 -41.306660 -0.178822 -0.440693 8.770684 31.806921 14.992990 1.301079 -8.886789 9.164861 0.032500 -8.414250 -17.094839 6.905641 -12.327354 -17.909184 -10.289900 -19.533600 6.217660 -26.058514 -10.005517 -5.939190 9.007195 -3.570157 -6.428788 1.471110 -27.195522 -0.506855 -0.351563 0.000000 0.000000 -21.667566 1.148763 4.187686 -36.830936 -25.705244 18.217213 -0.736324 5.381598 4.224761 16.871576 3.912536 -1.093365 -34.376259 -25.747744 16.095236 -8.641175 4.276957 2.914167 -5.330077 3.798435 1.717381 -6.985285 0.193774 -23.605637 18.456879 0.000486 -0.075456 -2.582301 -5.678691 0.726807 -0.000457 0.016384 -0.175016 -32.775597 16.956457 15.878533 65.389702 -0.281090 0.119192 34.007923 21.807045 -9.828259 0.000000 0.000000 0.000000 
-5.694180 42.336811 7.339143 0.351668 -1.406230 -42.024399 4.928540 2.977270 1.671640 9.176310 5.032770 5.570270 0.000000 0.000000 0.000000 -17.523800 -10.404000 1.483800 0.000000 0.000000 0.000000 0.000000 0.000000 0.000000 -6.939260 -20.392900 -1.160830 85.927155 13.022323 16.374350 43.061279 -0.138655 -0.700729 -11.451812 -23.912973 6.638422 -2.196803 8.088476 9.363434 5.081116 8.200828 -17.027071 -12.745916 11.528087 -17.401958 43.289902 19.533600 6.276580 2.575046 -8.807467 1.011032 15.258279 3.416048 -6.315852 34.696049 23.527008 15.577812 8.244953 -1.502700 0.722675 -12.838020 -2.429856 5.230082 35.942455 25.760197 18.217253 -0.156757 -5.465929 4.370303 -17.719269 -3.972915 -0.926374 33.485588 25.796474 16.095177 7.752715 -4.393883 3.036627 4.441531 -3.901016 1.855662 5.705130 17.213100 -1.015390 -99.987473 18.087452 3.208205 -41.658428 0.000729 -0.388034 7.837373 33.661655 18.226233 1.301079 -8.886789 9.164861 0.032500 -8.414250 -17.094839 6.905641 -12.327354 -17.909184 -10.289900 -19.533600 6.217660 -26.058514 -10.005517 -5.939190 9.007195 -3.570157 -6.428788 1.471110 -27.195522 -0.506855 -0.351563 0.000000 0.000000 -21.667566 1.148763 4.187686 -36.830936 -25.705244 18.217213 -0.736324 5.381598 4.224761 16.871576 3.912536 -1.093365 -34.376259 -25.747744 16.095236 -8.641175 4.276957 2.914167 -5.330077 3.798435 1.717381 -3.992392 0.020123 -23.127512 16.346804 0.000527 -0.242367 -0.339743 -3.004696 0.725968 -0.000457 0.016384 -0.175016 -31.447544 15.626658 19.172974 54.139015 -0.253770 0.284196 27.696886 23.319923 -10.406425 0.000000 0.000000 0.000000 
-6.998069 42.634262 9.025831 0.878972 -0.703046 -44.309601 3.695850 2.806670 3.353660 8.454790 3.651410 5.474330 0.000000 0.000000 0.000000 -14.719800 -11.571600 0.178038 0.000000 0.000000 0.000000 0.000000 0.000000 0.000000 -6.334200 -19.336500 -1.042530 85.877495 13.210661 17.575184 43.416039 0.149658 -0.456230 -10.842094 -24.182009 7.201367 -2.196803 8.088476 9.363434 5.081116 8.200828 -17.027071 -12.745916 11.528087 -17.401958 43.289902 19.533600 6.276580 2.575046 -8.807467 1.011032 15.258279 3.416048 -6.315852 34.696049 23.527008 15.577812 8.244953 -1.502700 0.722675 -12.838020 -2.429856 5.230082 35.942455 25.760197 18.217253 -0.156757 -5.465929 4.370303 -17.719269 -3.972915 -0.926374 33.485588 25.796474 16.095177 7.752715 -4.393883 3.036627 4.441531 -3.901016 1.855662 6.294340 18.269899 -1.107300 -99.463669 23.364294 0.903723 -42.009972 0.005559 -0.390002 6.984195 35.445660 20.008583 1.301079 -8.886789 9.164861 0.032500 -8.414250 -17.094839 6.905641 -12.327354 -17.909184 -10.289900 -19.533600 6.217660 -26.058514 -10.005517 -5.939190 9.007195 -3.570157 -6.428788 1.471110 -27.195522 -0.506855 -0.351563 0.000000 0.000000 -21.667566 1.148763 4.187686 -36.830936 -25.705244 18.217213 -0.736324 5.381598 4.224761 16.871576 3.912536 -1.093365 -34.376259 -25.747744 16.095236 -8.641175 4.276957 2.914167 -5.330077 3.798435 1.717381 -0.612642 0.006038 -21.964962 12.653948 0.039084 -0.574484 3.565638 -1.974884 -0.055419 -0.000457 0.016384 -0.175016 -27.943384 13.001142 23.066851 38.319958 -0.048627 0.144750 21.135822 20.906670 -8.083871 0.000000 0.000000 0.000000 
